<svg width="7" height="12" viewBox="0 0 7 12" fill="none" xmlns="http://www.w3.org/2000/svg">
<path d="M0.15889 6.34113L6.06761 11.8511C6.1703 11.9464 6.30937 11.9999 6.45436 11.9999C6.59934 11.9999 6.73841 11.9464 6.84111 11.8511C6.89146 11.8046 6.93142 11.7493 6.95869 11.6884C6.98596 11.6275 7 11.5621 7 11.4961C7 11.4301 6.98596 11.3648 6.95869 11.3038C6.93142 11.2429 6.89146 11.1876 6.84111 11.1411L1.3084 6.00113L6.84111 0.831125C6.89146 0.784644 6.93142 0.729342 6.95869 0.668413C6.98596 0.607484 7 0.542131 7 0.476126C7 0.41012 6.98596 0.344767 6.95869 0.283837C6.93142 0.222908 6.89146 0.167606 6.84111 0.121125C6.73357 0.0363083 6.59506 -0.00667 6.45436 0.00112534C6.38391 0.000326157 6.31406 0.0132589 6.2493 0.0390921C6.18454 0.0649252 6.12631 0.103087 6.07835 0.151125L0.15889 5.63113C0.108543 5.67761 0.0685816 5.73291 0.0413108 5.79384C0.01404 5.85477 0 5.92012 0 5.98613C0 6.05213 0.01404 6.11748 0.0413108 6.17841C0.0685816 6.23934 0.108543 6.29464 0.15889 6.34113Z" fill="white"/>
</svg>